<svg xmlns="http://www.w3.org/2000/svg" viewBox="0 0 2560 557"><path fill="#00aa13" d="M271.81 0h12.25c90.01 2.45 175.29 47.82 224.8 123.55 94.47 144.51 38.44 337.72-120.44 408.32q-8.7 3.87-15.31 4.93c-52.51 8.48-82.12-58.62-40.4-91.88q4.1-3.27 12.34-7.19c7.34-3.49 14.99-7.01 21.65-11.06 60.33-36.68 93.12-104.58 82.5-174.76-10.88-71.86-66.05-129.26-136.52-143.82-96.64-19.98-192.61 46.2-206.59 144.26-10.92 76.53 28.63 150.09 98.58 182.73q10.79 5.03 14.37 7.44 17.73 11.95 22.23 32.22c7.88 35.47-23.75 68.54-59.89 61.89q-7.27-1.33-18.76-6.7C71.02 487.15 9.45 400.25 1.33 299.18-11.47 139.94 113.12 4.51 271.81 0Z"/><path fill="#fff" d="M2003.56 0h81.25l.46 219.14a.68.68 0 0 0 1.14.49l136.92-128.55a1.26 1.23-65.7 0 1 .84-.33h108.82q.57 0 .16.39l-141.4 134.03a.62.62 0 0 0-.07.82l141.04 186.34a.35.35 0 0 1-.29.56q-45.65-.24-91.51-.12c-1.61.01-5.19 1.09-6.58-.85q-47.8-66.59-96.01-133.78a1.26 1.26 0 0 0-1.89-.18l-50.74 48.29a1.43 1.42 68.2 0 0-.44 1.03l-.01 85.38a.59.59 0 0 1-.59.59h-80.58a.55.55 0 0 1-.55-.55l.03-412.7ZM960.45 127.59a.39.39 0 0 0 .54-.36l.01-34.98a.5.5 0 0 1 .5-.5h81.04a.45.45 0 0 1 .45.45q.03 155.6-.01 311.3c-.01 85.06-61.99 145.3-144.67 152.05-64.46 5.27-129.61-14.03-175.17-60.23a.81.81 0 0 1 .02-1.14l54.35-52.38a.89.89 0 0 1 1.25.01q24.59 24.53 58.51 32.09c17.56 3.91 38.41 5.54 56.48 2.89 31.95-4.69 59.51-25.4 65.97-57.93 2.51-12.64 1.25-29.4 1.29-43.43a.38.38 0 0 0-.39-.38c-.2 0-.7.16-.83.3-33.2 35.16-87.88 41.62-132.86 33.24-84.7-15.79-137.77-89.96-129.41-175.09 5-50.95 34.01-96.74 78.79-121.19 35.56-19.4 76.42-24.57 116.13-17.75 24.87 4.27 48.62 14.33 66.81 32.18q.61.6 1.2.85ZM782.88 234.78c-6.8 40.75 10.01 82.97 51.89 96.7 35.78 11.73 83.86 4.71 108.67-25.53 16.63-20.26 14.34-43.85 14.09-68.26-.13-12.6-1.83-21.84-7.96-31.77-16.76-27.11-49.8-40.47-80.63-39.09-41.82 1.87-78.74 24.02-86.06 67.95Zm453.61 176.53c-67.32-9.41-123.71-55.31-138.97-122.58-11.66-51.43 2.14-106.71 38.55-144.93 43.13-45.27 108.8-60.01 169.02-48.16 62.96 12.39 114.08 57.77 127.87 121.04 12.26 56.29-4.72 114.81-47.77 153.43-40.12 35.98-96.19 48.54-148.7 41.2Zm-55.55-136.05c10.85 48.29 57.84 70.65 104.12 61.61 89.02-17.37 89.75-150.07.73-168.57q-26.08-5.42-50.81 2.4c-45.1 14.25-63.93 60.55-54.04 104.56Zm524.9 4.75q.6 9.71 4.92 18c14.88 28.55 48.58 43.96 79.43 45.88 36.18 2.26 63.56-7.65 90.29-31.72a.59.58 41.5 0 1 .74-.04l56.71 39.71a.33.32 38.3 0 1 .06.48c-32.22 37.84-79.49 59.04-128.92 60.81-40.97 1.47-82.73-7.04-117.7-28.88-54.87-34.28-77.05-96.8-67.39-159.36 10.75-69.58 62.49-119.28 131.54-130.5 72.04-11.7 147.25 15.76 179.93 84.42 15.78 33.15 17.88 64.99 16.95 100.33a.38.37.8 0 1-.38.36h-245.71a.48.47 88.3 0 0-.47.51Zm64.48-118.15c-31.33 4.83-58.89 24.16-63.52 57.38a.45.44-86.1 0 0 .44.51h162.21a.53.53 0 0 0 .52-.6c-6.68-48.99-57.81-63.74-99.65-57.29ZM1466.69 557h-58.75l.04-77.68a.32.32 0 0 1 .32-.32q23.6 0 47.2.01c11.56 0 25.26-3.18 29.53-15.27q2.64-7.49 2.63-18.3-.12-176.3-.18-352.6a.59.58-90 0 1 .58-.59h83.65a.52.52 0 0 1 .52.52q.08 280.52-.01 361.73-.02 20.04-5.15 40.48c-12.21 48.64-55.22 60.94-100.38 62.02Z"/><circle cx="278.15" cy="277.03" r="104.04" fill="#00aa13"/></svg>